# xmcd CD database file
# Copyright (C) 1997 Ti Kan
# 
# Track frame offsets:
#     150
#     13187
#     28942
#     47160
#     61789
#     79660
#     95604
#     107422
#     123797
#     139815
# 
# Disc length: 2059 seconds
# 
# Revision: 1
# Processed by: cddbd v1.4b41PL1 Copyright (c) Steve Scherf et al.
# Submitted via: DiscPlay 4.0.4
# 
DISCID=7c08090a
DTITLE=Thomas Wade and Wayward - Thomas Wade and Wayward
DYEAR=1900
DGENRE=
TTITLE0=I Read Lips
TTITLE1=Sittin' Pretty
TTITLE2=Lying here with you
TTITLE3=She's getting serious
TTITLE4=There's a song in there somewhere
TTITLE5=Zero to sixty
TTITLE6=For better or worse
TTITLE7=It goes without saying
TTITLE8=Love to burn
TTITLE9=Leaving me in pieces
EXTD=
EXTT0=
EXTT1=
EXTT2=
EXTT3=
EXTT4=
EXTT5=
EXTT6=
EXTT7=
EXTT8=
EXTT9=
PLAYORDER=
